<svg id="SvgjsSvg1006" width="956.078125" height="764.453125" xmlns="http://www.w3.org/2000/svg" version="1.1" xmlns:xlink="http://www.w3.org/1999/xlink" xmlns:svgjs="http://svgjs.com/svgjs"><defs id="SvgjsDefs1007"><marker id="SvgjsMarker1017" markerWidth="14" markerHeight="10" refX="10" refY="5" viewBox="0 0 14 10" orient="auto" markerUnits="userSpaceOnUse" stroke-dasharray="0,0"><path id="SvgjsPath1018" d="M0,0 L14,5 L0,10 L0,0" fill="#323232" stroke="#323232" stroke-width="1"></path></marker><marker id="SvgjsMarker1082" markerWidth="14" markerHeight="10" refX="10" refY="5" viewBox="0 0 14 10" orient="auto" markerUnits="userSpaceOnUse" stroke-dasharray="0,0"><path id="SvgjsPath1083" d="M0,0 L14,5 L0,10 L0,0" fill="#323232" stroke="#323232" stroke-width="1"></path></marker><marker id="SvgjsMarker1090" markerWidth="14" markerHeight="10" refX="10" refY="5" viewBox="0 0 14 10" orient="auto" markerUnits="userSpaceOnUse" stroke-dasharray="0,0"><path id="SvgjsPath1091" d="M0,0 L14,5 L0,10 L0,0" fill="#323232" stroke="#323232" stroke-width="1"></path></marker><marker id="SvgjsMarker1094" markerWidth="14" markerHeight="10" refX="10" refY="5" viewBox="0 0 14 10" orient="auto" markerUnits="userSpaceOnUse" stroke-dasharray="0,0"><path id="SvgjsPath1095" d="M0,0 L14,5 L0,10 L0,0" fill="#323232" stroke="#323232" stroke-width="1"></path></marker><marker id="SvgjsMarker1098" markerWidth="14" markerHeight="10" refX="10" refY="5" viewBox="0 0 14 10" orient="auto" markerUnits="userSpaceOnUse" stroke-dasharray="0,0"><path id="SvgjsPath1099" d="M0,0 L14,5 L0,10 L0,0" fill="#323232" stroke="#323232" stroke-width="1"></path></marker><marker id="SvgjsMarker1118" markerWidth="14" markerHeight="10" refX="10" refY="5" viewBox="0 0 14 10" orient="auto" markerUnits="userSpaceOnUse" stroke-dasharray="0,0"><path id="SvgjsPath1119" d="M0,0 L14,5 L0,10 L0,0" fill="#323232" stroke="#323232" stroke-width="1"></path></marker><marker id="SvgjsMarker1134" markerWidth="14" markerHeight="10" refX="10" refY="5" viewBox="0 0 14 10" orient="auto" markerUnits="userSpaceOnUse" stroke-dasharray="0,0"><path id="SvgjsPath1135" d="M0,0 L14,5 L0,10 L0,0" fill="#323232" stroke="#323232" stroke-width="1"></path></marker><marker id="SvgjsMarker1144" markerWidth="14" markerHeight="10" refX="10" refY="5" viewBox="0 0 14 10" orient="auto" markerUnits="userSpaceOnUse" stroke-dasharray="0,0"><path id="SvgjsPath1145" d="M0,0 L14,5 L0,10 L0,0" fill="#323232" stroke="#323232" stroke-width="1"></path></marker><marker id="SvgjsMarker1162" markerWidth="14" markerHeight="10" refX="10" refY="5" viewBox="0 0 14 10" orient="auto" markerUnits="userSpaceOnUse" stroke-dasharray="0,0"><path id="SvgjsPath1163" d="M0,0 L14,5 L0,10 L0,0" fill="#323232" stroke="#323232" stroke-width="1"></path></marker><marker id="SvgjsMarker1166" markerWidth="14" markerHeight="10" refX="10" refY="5" viewBox="0 0 14 10" orient="auto" markerUnits="userSpaceOnUse" stroke-dasharray="0,0"><path id="SvgjsPath1167" d="M0,0 L14,5 L0,10 L0,0" fill="#323232" stroke="#323232" stroke-width="1"></path></marker><marker id="SvgjsMarker1180" markerWidth="14" markerHeight="10" refX="10" refY="5" viewBox="0 0 14 10" orient="auto" markerUnits="userSpaceOnUse" stroke-dasharray="0,0"><path id="SvgjsPath1181" d="M0,0 L14,5 L0,10 L0,0" fill="#323232" stroke="#323232" stroke-width="1"></path></marker><marker id="SvgjsMarker1210" markerWidth="14" markerHeight="10" refX="4" refY="5" viewBox="0 0 14 10" orient="auto" markerUnits="userSpaceOnUse" stroke-dasharray="0,0"><path id="SvgjsPath1211" d="M14,0 L0,5 L14,10 L14,0" fill="#323232" stroke="#323232" stroke-width="1"></path></marker><marker id="SvgjsMarker1212" markerWidth="14" markerHeight="10" refX="10" refY="5" viewBox="0 0 14 10" orient="auto" markerUnits="userSpaceOnUse" stroke-dasharray="0,0"><path id="SvgjsPath1213" d="M0,0 L14,5 L0,10 L0,0" fill="#323232" stroke="#323232" stroke-width="1"></path></marker><marker id="SvgjsMarker1230" markerWidth="14" markerHeight="10" refX="10" refY="5" viewBox="0 0 14 10" orient="auto" markerUnits="userSpaceOnUse" stroke-dasharray="0,0"><path id="SvgjsPath1231" d="M0,0 L14,5 L0,10 L0,0" fill="#323232" stroke="#323232" stroke-width="1"></path></marker><marker id="SvgjsMarker1238" markerWidth="14" markerHeight="10" refX="4" refY="5" viewBox="0 0 14 10" orient="auto" markerUnits="userSpaceOnUse" stroke-dasharray="0,0"><path id="SvgjsPath1239" d="M14,0 L0,5 L14,10 L14,0" fill="#323232" stroke="#323232" stroke-width="1"></path></marker><marker id="SvgjsMarker1242" markerWidth="14" markerHeight="10" refX="10" refY="5" viewBox="0 0 14 10" orient="auto" markerUnits="userSpaceOnUse" stroke-dasharray="0,0"><path id="SvgjsPath1243" d="M0,0 L14,5 L0,10 L0,0" fill="#323232" stroke="#323232" stroke-width="1"></path></marker><marker id="SvgjsMarker1285" markerWidth="14" markerHeight="10" refX="10" refY="5" viewBox="0 0 14 10" orient="auto" markerUnits="userSpaceOnUse" stroke-dasharray="0,0"><path id="SvgjsPath1286" d="M0,0 L14,5 L0,10 L0,0" fill="#323232" stroke="#323232" stroke-width="1"></path></marker><pattern id="SvgjsPattern1293" x="0" y="0" width="81.75" height="81" patternUnits="userSpaceOnUse"><image id="SvgjsImage1294" xlink:href="https://cdn.processon.com/6286f2465653bb2a361d45c8.svg?e=1653014614&amp;amp;token=trhI0BY8QfVrIGn9nENop6JAc6l5nZuxhjQ62UfM:uwB1_11ZSkDOo2iC5czlMXhmOPk=" width="81.75" height="81" preserveAspectRatio="none" crossOrigin="anonymous" x="0" y="0"></image></pattern></defs><rect id="svgbackgroundid" width="956.078125" height="764.453125" fill="#ffffff"></rect><g id="SvgjsG1009" transform="translate(92.25,452.125)"><path id="SvgjsPath1010" d="M 0 0L 120 0L 120 40L 0 40Z" stroke="none" fill="none"></path><g id="SvgjsG1011"><text id="SvgjsText1012" font-family="微软雅黑" text-anchor="middle" font-size="13px" width="120px" fill="#323232" font-weight="400" align="middle" lineHeight="125%" anchor="middle" family="微软雅黑" size="13px" weight="400" font-style="" opacity="1" y="9.375" transform="rotate(0)"><tspan id="SvgjsTspan1013" dy="16" x="60"><tspan id="SvgjsTspan1014" style="text-decoration:;">Redis Stream</tspan></tspan></text></g></g><g id="SvgjsG1015"><path id="SvgjsPath1016" d="M214.75 417.125L321.25 417.125L321.25 414.07L424.15 414.07" stroke="#323232" stroke-width="2" fill="none" marker-end="url(#SvgjsMarker1017)"></path><rect id="SvgjsRect1019" width="73" height="16" x="284.4775" y="409.125" fill="#ffffff"></rect><text id="SvgjsText1020" font-family="微软雅黑" text-anchor="middle" font-size="13px" width="73px" fill="#323232" font-weight="400" align="top" lineHeight="16px" anchor="middle" family="微软雅黑" size="13px" weight="400" font-style="" opacity="1" y="406.5" transform="rotate(0)"><tspan id="SvgjsTspan1021" dy="16" x="320.9775"><tspan id="SvgjsTspan1022" style="text-decoration:;">xreadGroup</tspan></tspan></text></g><g id="SvgjsG1023" transform="translate(427.75,382.125)"><path id="SvgjsPath1024" d="M 0 31.944999999999993C 0 -10.648333333333332 88 -10.648333333333332 88 31.944999999999993C 88 74.53833333333331 0 74.53833333333331 0 31.944999999999993Z" stroke="rgba(50,50,50,1)" stroke-width="2" fill-opacity="1" fill="#ffffff"></path><g id="SvgjsG1025"><text id="SvgjsText1026" font-family="微软雅黑" text-anchor="middle" font-size="13px" width="68px" fill="#323232" font-weight="400" align="middle" lineHeight="125%" anchor="middle" family="微软雅黑" size="13px" weight="400" font-style="" opacity="1" y="21.319999999999993" transform="rotate(0)"><tspan id="SvgjsTspan1027" dy="16" x="44"><tspan id="SvgjsTspan1028" style="text-decoration:;">msgObject</tspan></tspan></text></g></g><g id="SvgjsG1029" transform="translate(445.75,308.015)"><path id="SvgjsPath1030" d="M 97 0Q 88 0 88 9L 88 88.61000000000001Q 88 97.61000000000001 75 97.61000000000001Q 88 97.61000000000001 88 106.61000000000001L 88 186.22000000000003Q 88 195.22000000000003 97 195.22000000000003" stroke="rgba(50,50,50,1)" stroke-width="2" fill="none"></path><path id="SvgjsPath1031" d="M 0 0L 97 0L 97 195.22000000000003L 0 195.22000000000003Z" stroke="none" fill="none"></path><g id="SvgjsG1032"><text id="SvgjsText1033" font-family="微软雅黑" text-anchor="end" font-size="13px" width="70px" fill="#323232" font-weight="400" align="middle" lineHeight="125%" anchor="end" family="微软雅黑" size="13px" weight="400" font-style="" opacity="1" y="86.98500000000001" transform="rotate(0)"></text></g></g><g id="SvgjsG1034" transform="translate(552.75,306.015)"><path id="SvgjsPath1035" d="M 0 0L 205 0L 205 195.22000000000003L 0 195.22000000000003Z" stroke="rgba(50,50,50,1)" stroke-width="2" fill-opacity="1" fill="#ffffff"></path><g id="SvgjsG1036"><text id="SvgjsText1037" font-family="微软雅黑" text-anchor="middle" font-size="13px" width="185px" fill="#323232" font-weight="400" align="middle" lineHeight="125%" anchor="middle" family="微软雅黑" size="13px" weight="400" font-style="" opacity="1" y="86.98500000000001" transform="rotate(0)"></text></g></g><g id="SvgjsG1038" transform="translate(547.75,273.125)"><path id="SvgjsPath1039" d="M 0 0L 137 0L 137 34.889999999999986L 0 34.889999999999986Z" stroke="none" fill="none"></path><g id="SvgjsG1040"><text id="SvgjsText1041" font-family="微软雅黑" text-anchor="middle" font-size="13px" width="137px" fill="#323232" font-weight="400" align="middle" lineHeight="125%" anchor="middle" family="微软雅黑" size="13px" weight="400" font-style="" opacity="1" y="6.819999999999993" transform="rotate(0)"><tspan id="SvgjsTspan1042" dy="16" x="68.5"><tspan id="SvgjsTspan1043" style="text-decoration:;">DetectorProcess List</tspan></tspan></text></g></g><g id="SvgjsG1044" transform="translate(552.75,306.015)"><path id="SvgjsPath1045" d="M 0 0L 205 0L 205 49.110000000000014L 0 49.110000000000014Z" stroke="rgba(50,50,50,1)" stroke-width="2" fill-opacity="1" fill="#ffffff"></path><g id="SvgjsG1046"><text id="SvgjsText1047" font-family="微软雅黑" text-anchor="middle" font-size="13px" width="185px" fill="#323232" font-weight="400" align="middle" lineHeight="125%" anchor="middle" family="微软雅黑" size="13px" weight="400" font-style="" opacity="1" y="13.930000000000007" transform="rotate(0)"><tspan id="SvgjsTspan1048" dy="16" x="102.5"><tspan id="SvgjsTspan1049" style="text-decoration:;">ControlPlane</tspan></tspan></text></g></g><g id="SvgjsG1050" transform="translate(552.75,355.015)"><path id="SvgjsPath1051" d="M 0 0L 205 0L 205 49.110000000000014L 0 49.110000000000014Z" stroke="rgba(50,50,50,1)" stroke-width="2" fill-opacity="1" fill="#ffffff"></path><g id="SvgjsG1052"><text id="SvgjsText1053" font-family="微软雅黑" text-anchor="middle" font-size="13px" width="185px" fill="#323232" font-weight="400" align="middle" lineHeight="125%" anchor="middle" family="微软雅黑" size="13px" weight="400" font-style="" opacity="1" y="13.930000000000007" transform="rotate(0)"><tspan id="SvgjsTspan1054" dy="16" x="102.5"><tspan id="SvgjsTspan1055" style="text-decoration:;">DataPlane</tspan></tspan></text></g></g><g id="SvgjsG1056" transform="translate(552.75,403.015)"><path id="SvgjsPath1057" d="M 0 0L 205 0L 205 49.110000000000014L 0 49.110000000000014Z" stroke="rgba(50,50,50,1)" stroke-width="2" fill-opacity="1" fill="#ffffff"></path><g id="SvgjsG1058"><text id="SvgjsText1059" font-family="微软雅黑" text-anchor="middle" font-size="13px" width="185px" fill="#323232" font-weight="400" align="middle" lineHeight="125%" anchor="middle" family="微软雅黑" size="13px" weight="400" font-style="" opacity="1" y="13.930000000000007" transform="rotate(0)"><tspan id="SvgjsTspan1060" dy="16" x="102.5"><tspan id="SvgjsTspan1061" style="text-decoration:;">MixPlane</tspan></tspan></text></g></g><g id="SvgjsG1062" transform="translate(552.75,452.125)"><path id="SvgjsPath1063" d="M 0 0L 205 0L 205 49.110000000000014L 0 49.110000000000014Z" stroke="rgba(50,50,50,1)" stroke-width="2" fill-opacity="1" fill="#ffffff"></path><g id="SvgjsG1064"><text id="SvgjsText1065" font-family="微软雅黑" text-anchor="middle" font-size="13px" width="185px" fill="#323232" font-weight="400" align="middle" lineHeight="125%" anchor="middle" family="微软雅黑" size="13px" weight="400" font-style="" opacity="1" y="13.930000000000007" transform="rotate(0)"><tspan id="SvgjsTspan1066" dy="16" x="102.5"><tspan id="SvgjsTspan1067" style="text-decoration:;">......</tspan></tspan></text></g></g><g id="SvgjsG1068"><path id="SvgjsPath1069" d="M812.0833320617676 518.125L869.0833320617676 518.125L869.0833320617676 518.125L926.0833320617676 518.125" stroke="#323232" stroke-width="2" fill="none"></path></g><g id="SvgjsG1070"><path id="SvgjsPath1071" d="M812.0833320617676 518.125L812.0833320617676 485.125L812.0833320617676 485.125L812.0833320617676 452.125" stroke="#323232" stroke-width="2" fill="none"></path></g><g id="SvgjsG1072"><path id="SvgjsPath1073" d="M927.0833320617676 518.125L927.0833320617676 485.125L927.0833320617676 485.125L927.0833320617676 452.125" stroke="#323232" stroke-width="2" fill="none"></path></g><g id="SvgjsG1074" transform="translate(811.0833320617676,476.235)"><path id="SvgjsPath1075" d="M 0 0L 120 0L 120 40L 0 40Z" stroke="none" fill="none"></path><g id="SvgjsG1076"><text id="SvgjsText1077" font-family="微软雅黑" text-anchor="middle" font-size="13px" width="120px" fill="#323232" font-weight="400" align="middle" lineHeight="125%" anchor="middle" family="微软雅黑" size="13px" weight="400" font-style="" opacity="1" y="9.375" transform="rotate(0)"><tspan id="SvgjsTspan1078" dy="16" x="60"><tspan id="SvgjsTspan1079" style="text-decoration:;">FixedThreadPool</tspan></tspan></text></g></g><g id="SvgjsG1080"><path id="SvgjsPath1081" d="M758.75 330.57L896.0833320617676 330.57L896.0833320617676 473.525" stroke="#323232" stroke-width="2" fill="none" marker-end="url(#SvgjsMarker1082)"></path><rect id="SvgjsRect1084" width="52" height="16" x="800.75" y="322.125" fill="#ffffff"></rect><text id="SvgjsText1085" font-family="微软雅黑" text-anchor="middle" font-size="13px" width="52px" fill="#323232" font-weight="400" align="top" lineHeight="16px" anchor="middle" family="微软雅黑" size="13px" weight="400" font-style="" opacity="1" y="319.5" transform="rotate(0)"><tspan id="SvgjsTspan1086" dy="16" x="826.75"><tspan id="SvgjsTspan1087" style="text-decoration:;">submit()</tspan></tspan></text></g><g id="SvgjsG1088"><path id="SvgjsPath1089" d="M758.75 379.57L871.0833320617676 379.57L871.0833320617676 472.635" stroke="#323232" stroke-width="2" fill="none" marker-end="url(#SvgjsMarker1090)"></path></g><g id="SvgjsG1092"><path id="SvgjsPath1093" d="M758.75 427.57L850.0833320617676 427.57L850.0833320617676 473.525" stroke="#323232" stroke-width="2" fill="none" marker-end="url(#SvgjsMarker1094)"></path></g><g id="SvgjsG1096"><path id="SvgjsPath1097" d="M871.0833320617676 517.235L871.0833320617676 584.235L761.35 584.235" stroke="#323232" stroke-width="2" fill="none" marker-end="url(#SvgjsMarker1098)"></path><rect id="SvgjsRect1100" width="38" height="16" x="817.75" y="576.125" fill="#ffffff"></rect><text id="SvgjsText1101" font-family="微软雅黑" text-anchor="middle" font-size="13px" width="38px" fill="#323232" font-weight="400" align="top" lineHeight="16px" anchor="middle" family="微软雅黑" size="13px" weight="400" font-style="" opacity="1" y="573.5" transform="rotate(0)"><tspan id="SvgjsTspan1102" dy="16" x="836.75"><tspan id="SvgjsTspan1103" style="text-decoration:;">return</tspan></tspan></text></g><g id="SvgjsG1104" transform="translate(657.75,549.235)"><path id="SvgjsPath1105" d="M 0 0L 100 0L 100 70L 0 70Z" stroke="rgba(50,50,50,1)" stroke-width="2" fill-opacity="1" fill="#ffffff"></path><g id="SvgjsG1106"><text id="SvgjsText1107" font-family="微软雅黑" text-anchor="middle" font-size="13px" width="80px" fill="#323232" font-weight="400" align="middle" lineHeight="125%" anchor="middle" family="微软雅黑" size="13px" weight="400" font-style="" opacity="1" y="24.375" transform="rotate(0)"><tspan id="SvgjsTspan1108" dy="16" x="50"><tspan id="SvgjsTspan1109" style="text-decoration:;">FutureList</tspan></tspan></text></g></g><g id="SvgjsG1110" transform="translate(415.75,549.235)"><path id="SvgjsPath1111" d="M 0 0L 100 0L 100 70L 0 70Z" stroke="rgba(50,50,50,1)" stroke-width="2" fill-opacity="1" fill="#ffffff"></path><g id="SvgjsG1112"><text id="SvgjsText1113" font-family="微软雅黑" text-anchor="middle" font-size="13px" width="80px" fill="#323232" font-weight="400" align="middle" lineHeight="125%" anchor="middle" family="微软雅黑" size="13px" weight="400" font-style="" opacity="1" y="24.375" transform="rotate(0)"><tspan id="SvgjsTspan1114" dy="16" x="50"><tspan id="SvgjsTspan1115" style="text-decoration:;">ResultList</tspan></tspan></text></g></g><g id="SvgjsG1116"><path id="SvgjsPath1117" d="M656.75 584.235L586.75 584.235L586.75 584.235L519.35 584.235" stroke="#323232" stroke-width="2" fill="none" marker-end="url(#SvgjsMarker1118)"></path><rect id="SvgjsRect1120" width="86" height="32" x="553.75" y="568.125" fill="#ffffff"></rect><text id="SvgjsText1121" font-family="微软雅黑" text-anchor="middle" font-size="13px" width="86px" fill="#323232" font-weight="400" align="top" lineHeight="16px" anchor="middle" family="微软雅黑" size="13px" weight="400" font-style="" opacity="1" y="565.5" transform="rotate(0)"><tspan id="SvgjsTspan1122" dy="16" x="596.75"><tspan id="SvgjsTspan1123" style="text-decoration:;">Blocking call</tspan></tspan><tspan id="SvgjsTspan1124" dy="16" x="596.75"><tspan id="SvgjsTspan1125" style="text-decoration:;">wait for result</tspan></tspan></text></g><g id="SvgjsG1126" transform="translate(237.25,549.235)"><path id="SvgjsPath1127" d="M 0 0L 100 0L 100 70L 0 70Z" stroke="rgba(50,50,50,1)" stroke-width="2" fill-opacity="1" fill="#ffffff"></path><g id="SvgjsG1128"><text id="SvgjsText1129" font-family="微软雅黑" text-anchor="middle" font-size="13px" width="80px" fill="#323232" font-weight="400" align="middle" lineHeight="125%" anchor="middle" family="微软雅黑" size="13px" weight="400" font-style="" opacity="1" y="24.375" transform="rotate(0)"><tspan id="SvgjsTspan1130" dy="16" x="50"><tspan id="SvgjsTspan1131" style="text-decoration:;">Adjudicator</tspan></tspan></text></g></g><g id="SvgjsG1132"><path id="SvgjsPath1133" d="M414.75 584.235L376.5 584.235L376.5 584.235L340.85 584.235" stroke="#323232" stroke-width="2" fill="none" marker-end="url(#SvgjsMarker1134)"></path></g><g id="SvgjsG1136" transform="translate(415.75,656.345)"><path id="SvgjsPath1137" d="M 0 0L 100 0L 100 70L 0 70Z" stroke="rgba(50,50,50,1)" stroke-width="2" fill-opacity="1" fill="#ffffff"></path><g id="SvgjsG1138"><text id="SvgjsText1139" font-family="微软雅黑" text-anchor="middle" font-size="13px" width="80px" fill="#323232" font-weight="400" align="middle" lineHeight="125%" anchor="middle" family="微软雅黑" size="13px" weight="400" font-style="" opacity="1" y="24.375" transform="rotate(0)"><tspan id="SvgjsTspan1140" dy="16" x="50"><tspan id="SvgjsTspan1141" style="text-decoration:;">RulingResult</tspan></tspan></text></g></g><g id="SvgjsG1142"><path id="SvgjsPath1143" d="M287.25 620.235L287.25 691.345L412.15 691.345" stroke="#323232" stroke-width="2" fill="none" marker-end="url(#SvgjsMarker1144)"></path><rect id="SvgjsRect1146" width="45" height="16" x="326.575" y="683.345" fill="#ffffff"></rect><text id="SvgjsText1147" font-family="微软雅黑" text-anchor="middle" font-size="13px" width="45px" fill="#323232" font-weight="400" align="top" lineHeight="16px" anchor="middle" family="微软雅黑" size="13px" weight="400" font-style="" opacity="1" y="680.72" transform="rotate(0)"><tspan id="SvgjsTspan1148" dy="16" x="349.075"><tspan id="SvgjsTspan1149" style="text-decoration:;">ruling()</tspan></tspan></text></g><g id="SvgjsG1150" transform="translate(342.75,207.015)"><path id="SvgjsPath1151" d="M 0 0L 180 0L 196 16L 196 51L 0 51L 0 0Z" stroke="none" fill-opacity="1" fill="#ffffaa"></path><path id="SvgjsPath1152" d="M 180 0L 180 16L 196 16Z" stroke="none" fill-opacity="1" fill="#cdcdcd"></path><path id="SvgjsPath1153" d="M 0 0L 180 0L 196 16L 196 51L 0 51L 0 0Z" stroke="none" fill="none"></path><g id="SvgjsG1154"><text id="SvgjsText1155" font-family="微软雅黑" text-anchor="middle" font-size="13px" width="176px" fill="#323232" font-weight="400" align="middle" lineHeight="125%" anchor="middle" family="微软雅黑" size="13px" weight="400" font-style="" opacity="1" y="6.375" transform="rotate(0)"><tspan id="SvgjsTspan1156" dy="16" x="98"><tspan id="SvgjsTspan1157" style="text-decoration:;">implements </tspan></tspan><tspan id="SvgjsTspan1158" dy="16" x="98"><tspan id="SvgjsTspan1159" style="text-decoration:;">Callable&lt;DetectionResult&gt;</tspan></tspan></text></g></g><g id="SvgjsG1160"><path id="SvgjsPath1161" d="M546.75 290.57L440.75 290.57L440.75 260.615" stroke="#323232" stroke-width="2" fill="none" marker-end="url(#SvgjsMarker1162)"></path></g><g id="SvgjsG1164"><path id="SvgjsPath1165" d="M714.75 305.125L714.75 282.07L775.4 282.07L775.4 260.615" stroke="#323232" stroke-width="2" fill="none" marker-end="url(#SvgjsMarker1166)"></path></g><g id="SvgjsG1168" transform="translate(677.75,201.125)"><path id="SvgjsPath1169" d="M 0 0L 170 0L 186 16L 186 56.889999999999986L 0 56.889999999999986L 0 0Z" stroke="none" fill-opacity="1" fill="#ffffaa"></path><path id="SvgjsPath1170" d="M 170 0L 170 16L 186 16Z" stroke="none" fill-opacity="1" fill="#cdcdcd"></path><path id="SvgjsPath1171" d="M 0 0L 170 0L 186 16L 186 56.889999999999986L 0 56.889999999999986L 0 0Z" stroke="none" fill="none"></path><g id="SvgjsG1172"><text id="SvgjsText1173" font-family="微软雅黑" text-anchor="middle" font-size="13px" width="166px" fill="#323232" font-weight="400" align="middle" lineHeight="125%" anchor="middle" family="微软雅黑" size="13px" weight="400" font-style="" opacity="1" y="9.319999999999993" transform="rotate(0)"><tspan id="SvgjsTspan1174" dy="16" x="93"><tspan id="SvgjsTspan1175" style="text-decoration:;">extends Detection</tspan></tspan><tspan id="SvgjsTspan1176" dy="16" x="93"><tspan id="SvgjsTspan1177" style="text-decoration:;">implements BasicChecker</tspan></tspan></text></g></g><g id="SvgjsG1178"><path id="SvgjsPath1179" d="M440.75 207.015L440.75 176.07L440.75 176.07L440.75 148.725" stroke="#323232" stroke-width="2" fill="none" marker-end="url(#SvgjsMarker1180)"></path><rect id="SvgjsRect1182" width="29" height="16" x="426.25" y="169.87" fill="#ffffff"></rect><text id="SvgjsText1183" font-family="微软雅黑" text-anchor="middle" font-size="13px" width="29px" fill="#323232" font-weight="400" align="top" lineHeight="16px" anchor="middle" family="微软雅黑" size="13px" weight="400" font-style="" opacity="1" y="167.245" transform="rotate(0)"><tspan id="SvgjsTspan1184" dy="16" x="440.75"><tspan id="SvgjsTspan1185" style="text-decoration:;">call()</tspan></tspan></text></g><g id="SvgjsG1186" transform="translate(337.25,105.90499999999997)"><path id="SvgjsPath1187" d="M 0 0L 207 0L 207 39.22000000000003L 0 39.22000000000003Z" stroke="rgba(50,50,50,1)" stroke-width="2" fill-opacity="1" fill="#ffffff"></path><g id="SvgjsG1188"><text id="SvgjsText1189" font-family="微软雅黑" text-anchor="middle" font-size="13px" width="187px" fill="#323232" font-weight="400" align="middle" lineHeight="125%" anchor="middle" family="微软雅黑" size="13px" weight="400" font-style="" opacity="1" y="8.985000000000014" transform="rotate(0)"><tspan id="SvgjsTspan1190" dy="16" x="103.5"><tspan id="SvgjsTspan1191" style="text-decoration:;">checker.hijackCheck(message)</tspan></tspan></text></g></g><g id="SvgjsG1192" transform="translate(25,105.90499999999997)"><path id="SvgjsPath1193" d="M 0 0L 254 0L 254 112L 0 112Z" stroke="rgba(50,50,50,1)" stroke-width="2" fill-opacity="1" fill="#ffffff"></path><g id="SvgjsG1194"><text id="SvgjsText1195" font-family="微软雅黑" text-anchor="middle" font-size="13px" width="234px" fill="#323232" font-weight="400" align="middle" lineHeight="125%" anchor="middle" family="微软雅黑" size="13px" weight="400" font-style="" opacity="1" y="4.375" transform="rotate(0)"><tspan id="SvgjsTspan1196" dy="16" x="127"><tspan id="SvgjsTspan1197" style="text-decoration:;">RedisMapper</tspan></tspan><tspan id="SvgjsTspan1198" dy="16" x="127"><tspan id="SvgjsTspan1199" style="text-decoration:;">getOriginalPaths(ASnL, ASnR);</tspan></tspan><tspan id="SvgjsTspan1200" dy="16" x="127"><tspan id="SvgjsTspan1201" style="text-decoration:;">findLocalPath(prefix);</tspan></tspan><tspan id="SvgjsTspan1202" dy="16" x="127"><tspan id="SvgjsTspan1203" style="text-decoration:;"> isPolicyRelativeCorrect(ASnX, ASnY);</tspan></tspan><tspan id="SvgjsTspan1204" dy="16" x="127"><tspan id="SvgjsTspan1205" style="text-decoration:;">getHistoryPaths(srcASn, peerASn);</tspan></tspan><tspan id="SvgjsTspan1206" dy="16" x="127"><tspan id="SvgjsTspan1207" style="text-decoration:;">......</tspan></tspan></text></g></g><g id="SvgjsG1208"><path id="SvgjsPath1209" d="M152 221.50499999999997L152 289.015L152 289.015L152 360.125" stroke="#323232" stroke-width="2" fill="none" marker-start="url(#SvgjsMarker1210)" marker-end="url(#SvgjsMarker1212)"></path></g><g id="SvgjsG1214" transform="translate(671.125,25.014999999999986)"><path id="SvgjsPath1215" d="M 0 0L 199.25 0L 199.25 114.11000000000001L 0 114.11000000000001Z" stroke="rgba(50,50,50,1)" stroke-width="2" fill-opacity="1" fill="#ffffff"></path><g id="SvgjsG1216"><text id="SvgjsText1217" font-family="微软雅黑" text-anchor="middle" font-size="13px" width="180px" fill="#323232" font-weight="400" align="middle" lineHeight="125%" anchor="middle" family="微软雅黑" size="13px" weight="400" font-style="" opacity="1" y="13.930000000000007" transform="rotate(0)"><tspan id="SvgjsTspan1218" dy="16" x="100"><tspan id="SvgjsTspan1219" style="text-decoration:;">Detection</tspan></tspan><tspan id="SvgjsTspan1220" dy="16" x="100"><tspan id="SvgjsTspan1221" style="text-decoration:;">getAnnouncedPrefixes(ASn);</tspan></tspan><tspan id="SvgjsTspan1222" dy="16" x="100"><tspan id="SvgjsTspan1223" style="text-decoration:;">isNotSource(ASn, prefixes);</tspan></tspan><tspan id="SvgjsTspan1224" dy="16" x="100"><tspan id="SvgjsTspan1225" style="text-decoration:;">isAdjacent(ASnX, ASnY)</tspan></tspan><tspan id="SvgjsTspan1226" dy="16" x="100"><tspan id="SvgjsTspan1227" style="text-decoration:;">......</tspan></tspan></text></g></g><g id="SvgjsG1228"><path id="SvgjsPath1229" d="M770.75 201.125L770.75 170.125L770.75 170.125L770.75 142.725" stroke="#323232" stroke-width="2" fill="none" marker-end="url(#SvgjsMarker1230)"></path><rect id="SvgjsRect1232" width="48" height="16" x="746.75" y="163.92499999999998" fill="#ffffff"></rect><text id="SvgjsText1233" font-family="微软雅黑" text-anchor="middle" font-size="13px" width="48px" fill="#323232" font-weight="400" align="top" lineHeight="16px" anchor="middle" family="微软雅黑" size="13px" weight="400" font-style="" opacity="1" y="161.29999999999998" transform="rotate(0)"><tspan id="SvgjsTspan1234" dy="16" x="770.75"><tspan id="SvgjsTspan1235" style="text-decoration:;">extends</tspan></tspan></text></g><g id="SvgjsG1236"><path id="SvgjsPath1237" d="M667.525 82.07L152 82.07L152 104.90499999999997" stroke="#323232" stroke-width="2" fill="none" marker-start="url(#SvgjsMarker1238)"></path></g><g id="SvgjsG1240"><path id="SvgjsPath1241" d="M677.75 229.57L611 229.57L611 125.51499999999999L547.85 125.51499999999999" stroke="#323232" stroke-width="2" fill="none" marker-end="url(#SvgjsMarker1242)"></path><rect id="SvgjsRect1244" width="66" height="16" x="578" y="171.3425" fill="#ffffff"></rect><text id="SvgjsText1245" font-family="微软雅黑" text-anchor="middle" font-size="13px" width="66px" fill="#323232" font-weight="400" align="top" lineHeight="16px" anchor="middle" family="微软雅黑" size="13px" weight="400" font-style="" opacity="1" y="168.7175" transform="rotate(0)"><tspan id="SvgjsTspan1246" dy="16" x="611"><tspan id="SvgjsTspan1247" style="text-decoration:;">implments</tspan></tspan></text></g><g id="SvgjsG1248" transform="translate(454.75,657.125)"><path id="SvgjsPath1249" d="M 93 0Q 84 0 84 6.844000000000006L 84 27.376000000000023Q 84 34.22000000000003 71 34.22000000000003Q 84 34.22000000000003 84 41.064000000000036L 84 61.596000000000046Q 84 68.44000000000005 93 68.44000000000005" stroke="rgba(50,50,50,1)" stroke-width="2" fill="none"></path><path id="SvgjsPath1250" d="M 0 0L 93 0L 93 68.44000000000005L 0 68.44000000000005Z" stroke="none" fill="none"></path><g id="SvgjsG1251"><text id="SvgjsText1252" font-family="微软雅黑" text-anchor="end" font-size="13px" width="66px" fill="#323232" font-weight="400" align="middle" lineHeight="125%" anchor="end" family="微软雅黑" size="13px" weight="400" font-style="" opacity="1" y="23.595000000000027" transform="rotate(0)"></text></g></g><g id="SvgjsG1253" transform="translate(542.75,645.345)"><path id="SvgjsPath1254" d="M 0 0L 120 0L 120 40L 0 40Z" stroke="none" fill="none"></path><g id="SvgjsG1255"><text id="SvgjsText1256" font-family="微软雅黑" text-anchor="middle" font-size="13px" width="120px" fill="#323232" font-weight="400" align="middle" lineHeight="125%" anchor="middle" family="微软雅黑" size="13px" weight="400" font-style="" opacity="1" y="9.375" transform="rotate(0)"><tspan id="SvgjsTspan1257" dy="16" x="60"><tspan id="SvgjsTspan1258" style="text-decoration:;">suspiciousList</tspan></tspan></text></g></g><g id="SvgjsG1259" transform="translate(515.75,699.455)"><path id="SvgjsPath1260" d="M 0 0L 120 0L 120 40L 0 40Z" stroke="none" fill="none"></path><g id="SvgjsG1261"><text id="SvgjsText1262" font-family="微软雅黑" text-anchor="middle" font-size="13px" width="120px" fill="#323232" font-weight="400" align="middle" lineHeight="125%" anchor="middle" family="微软雅黑" size="13px" weight="400" font-style="" opacity="1" y="9.375" transform="rotate(0)"><tspan id="SvgjsTspan1263" dy="16" x="60"><tspan id="SvgjsTspan1264" style="text-decoration:;">result</tspan></tspan></text></g></g><g id="SvgjsG1265" transform="translate(217.75,363.125)"><path id="SvgjsPath1266" d="M 0 0L 198 0L 198 32.889999999999986L 0 32.889999999999986Z" stroke="none" fill="none"></path><g id="SvgjsG1267"><text id="SvgjsText1268" font-family="微软雅黑" text-anchor="middle" font-size="13px" width="198px" fill="#323232" font-weight="400" align="middle" lineHeight="125%" anchor="middle" family="微软雅黑" size="13px" weight="400" font-style="" opacity="1" y="-2.680000000000007" transform="rotate(0)"><tspan id="SvgjsTspan1269" dy="16" x="99"><tspan id="SvgjsTspan1270" style="text-decoration:;">Blocking read unreceived </tspan></tspan><tspan id="SvgjsTspan1271" dy="16" x="99"><tspan id="SvgjsTspan1272" style="text-decoration:;">message from consumer group</tspan></tspan></text></g></g><g id="SvgjsG1273" transform="translate(52.25,653.455)"><path id="SvgjsPath1274" d="M 0 0L 121 0L 137 16L 137 46L 0 46L 0 0Z" stroke="none" fill-opacity="1" fill="#ffffaa"></path><path id="SvgjsPath1275" d="M 121 0L 121 16L 137 16Z" stroke="none" fill-opacity="1" fill="#cdcdcd"></path><path id="SvgjsPath1276" d="M 0 0L 121 0L 137 16L 137 46L 0 46L 0 0Z" stroke="none" fill="none"></path><g id="SvgjsG1277"><text id="SvgjsText1278" font-family="微软雅黑" text-anchor="middle" font-size="13px" width="117px" fill="#323232" font-weight="400" align="middle" lineHeight="125%" anchor="middle" family="微软雅黑" size="13px" weight="400" font-style="" opacity="1" y="3.875" transform="rotate(0)"><tspan id="SvgjsTspan1279" dy="16" x="68.5"><tspan id="SvgjsTspan1280" style="text-decoration:;">implements </tspan></tspan><tspan id="SvgjsTspan1281" dy="16" x="68.5"><tspan id="SvgjsTspan1282" style="text-decoration:;">BasicAdjudicator</tspan></tspan></text></g></g><g id="SvgjsG1283"><path id="SvgjsPath1284" d="M236.25 584.235L120.75 584.235L120.75 650.855" stroke="#323232" stroke-width="2" fill="none" marker-end="url(#SvgjsMarker1285)"></path><rect id="SvgjsRect1287" width="66" height="16" x="140.175" y="580.345" fill="#ffffff"></rect><text id="SvgjsText1288" font-family="微软雅黑" text-anchor="middle" font-size="13px" width="66px" fill="#323232" font-weight="400" align="top" lineHeight="16px" anchor="middle" family="微软雅黑" size="13px" weight="400" font-style="" opacity="1" y="577.72" transform="rotate(0)"><tspan id="SvgjsTspan1289" dy="16" x="173.175"><tspan id="SvgjsTspan1290" style="text-decoration:;">implments</tspan></tspan></text></g><g id="SvgjsG1291" transform="translate(111.125,373.57)"><path id="SvgjsPath1292" d="M 0 0L 81.75 0L 81.75 81L 0 81Z" stroke="none" fill="url(#SvgjsPattern1293)" opacity="1"></path></g></svg>